<svg xmlns="http://www.w3.org/2000/svg" viewBox="0 0 1355 1810"><g id="Camada_1" data-name="Camada 1"><g id="Camada_4" data-name="Camada 4"><rect width="1355" height="1810" style="fill:#dce6e1"/></g><ellipse cx="678.27" cy="469.63" rx="294.2" ry="325.13" style="fill:#46a76b"/></g><g id="Camada_3" data-name="Camada 3"><path d="M494.05,864.88l-28.87,2.75-24.74,4.13-24.75,5.5L391,882.76l-17.88,5.49-23.37,9.63L312.58,913l-41.24,20.62-30.25,19.25-30.24,20.62L193,988.61l-22,20.62-19.25,19.25-17.87,22-16.5,23.37-12.37,22-9.62,22-5.5,19.25-8.25,35.74-5.5,30.25-6.87,37.12-6.88,49.49-2.75,33-2.75,39.87L55.5,1392.8v48.11l2.75,17.88L61,1473.91,65.12,1489l5.5,13.75,5.5,11,13.75,15.12,13.75,12.37,13.74,9.63,15.13,9.62,12.37,8.25,15.12,9.62,13.75,6.88,26.12,12.37,19.25,8.25,20.62,8.25,24.75,8.25,20.62,6.87,19.24,5.5,20.63,5.5,20.62,5.5,12.37,2.75,17.87,4.12,17.88,4.12,23.37,4.13,24.74,4.12,19.25,4.13,20.62,2.75,15.12,1.37,16.5,1.38,12.37,1.37,15.13,1.38,19.24,1.37,9.63,1.38L582,1681.5l16.5,1.38,15.12,1.37h39.87l12.37,1.38,20.62,1.37,20.62-1.37h34.37l28.87-1.38,33-1.37,50.87-2.75,53.61-6.88,60.49-8.25,42.62-9.62,45.37-12.37,33-9.63,26.12-9.62,27.5-11,24.74-11,20.63-11,15.12-8.25,15.12-9.63,13.75-9.62,11-9.62,15.12-13.75,12.37-12.37,4.13-5.5,4.12-5.5,4.13-8.25,2.75-6.87,4.12-11,2.75-8.25,2.75-13.75,1.37-15.12,1.38-15.12v-16.5l1.37-17.87v-20.63l-1.37-15.12-1.38-16.5v-15.12l-1.37-15.12-1.38-19.25-1.37-13.75-2.75-26.12-2.75-27.49-5.5-41.25-11-56.36-6.87-24.75-5.5-15.12-9.62-19.25-11-16.49-13.75-17.88-13.75-16.49-17.87-19.25-19.25-16.5L1154,976.24l-16.5-12.37-17.87-12.38-16.5-9.62L1090.71,935l-15.13-8.25-12.37-6.88-16.5-6.87-16.49-6.87-12.38-5.5-20.62-6.88-15.12-5.5-11-4.12L956,880q-26.25-5.75-59.12-11c-.34-1.85-51.76-3.74-110.79-5.24-79.35-2-172.46-3.37-173.79-3C612.28,860.76,503.35,862.91,494.05,864.88Z" style="fill:#46a76b"/></g></svg>